{"title":"Jumanji 2017 CAM Full ENGLISH Audio AAC x264 - EiE","magnet":"magnet:?xt=urn:btih:bc31e5ce255e29d9be800c59b414f1d6f5e0aa9e&dn=Jumanji+2017+CAM+Full+ENGLISH+Audio+AAC+x264+-+EiE&tr=udp%3A%2F%2Ftracker.leechers-paradise.org%3A6969&tr=udp%3A%2F%2Fzer0day.ch%3A1337&tr=udp%3A%2F%2Fopen.demonii.com%3A1337&tr=udp%3A%2F%2Ftracker.coppersurfer.tk%3A6969&tr=udp%3A%2F%2Fexodus.desync.com%3A6969","uploader":"samcode4u","categoryP":"video","categoryS":"movies","size":"734033496","seeders":"281","leechers":"85","description":"Jumanji 2017 CAM Full ENGLISH Audio AAC x264 - EiE\r\n <a href=\"\nhttps://www.imdb.com/title/tt2283362/\" rel=\"nofollow\" target=\"_NEW\">\nhttps://www.imdb.com/title/tt2283362/</a>\r\n\r\n\r\nScreenshots:\r\n <a href=\"\nhttps://lensdump.com/i/O0mkZ\" rel=\"nofollow\" target=\"_NEW\">\nhttps://lensdump.com/i/O0mkZ</a>\r\n <a href=\"\nhttps://lensdump.com/i/O0sHP\" rel=\"nofollow\" target=\"_NEW\">\nhttps://lensdump.com/i/O0sHP</a>\r\n <a href=\"\nhttps://lensdump.com/i/O03Xm\" rel=\"nofollow\" target=\"_NEW\">\nhttps://lensdump.com/i/O03Xm</a>\r\n <a href=\"\nhttps://lensdump.com/i/O0Kri\" rel=\"nofollow\" target=\"_NEW\">\nhttps://lensdump.com/i/O0Kri</a>\r\n\r\n\r\n\r\n\r\nVideo\r\nID                                       : 1\r\nFormat                                   : AVC\r\nFormat/Info                              : Advanced Video Codec\r\nFormat settings, CABAC                   : Yes\r\nFormat settings, ReFrames                : 4 frames\r\nCodec ID                                 : avc1\r\nCodec ID/Info                            : Advanced Video Coding\r\nDuration                                 : 1h 50mn\r\nBit rate                                 : 790 Kbps\r\nMaximum bit rate                         : 3 382 Kbps\r\nWidth                                    : 720 pixels\r\nHeight                                   : 288 pixels\r\nDisplay aspect ratio                     : 2.500\r\nFrame rate mode                          : Constant\r\nFrame rate                               : 29.970 fps\r\nColor space                              : YUV\r\nChroma subsampling                       : 4:2:0\r\nBit depth                                : 8 bits\r\nScan type                                : Progressive\r\nBits/(Pixel*Frame)                       : 0.127\r\nStream size                              : 626 MiB (89%)\r\n\r\nAudio\r\nID                                       : 2\r\nFormat                                   : AAC\r\nFormat/Info                              : Advanced Audio Codec\r\nFormat profile                           : LC\r\nCodec ID                                 : 40\r\nDuration                                 : 1h 50mn\r\nBit rate mode                            : Variable\r\nBit rate                                 : 88.7 Kbps\r\nMaximum bit rate                         : 129 Kbps\r\nChannel(s)                               : 2 channels\r\nChannel positions                        : Front: L R\r\nSampling rate                            : 48.0 KHz\r\nCompression mode                         : Lossy\r\nStream size                              : 70.4 MiB (10%)\r\nLanguage                                 : English","last_updated":"2017-12-27T12:05:56.152Z","parsed":{"xt":"urn:btih:bc31e5ce255e29d9be800c59b414f1d6f5e0aa9e","dn":"Jumanji 2017 CAM Full ENGLISH Audio AAC x264 - EiE","tr":["udp://exodus.desync.com:6969","udp://open.demonii.com:1337","udp://tracker.coppersurfer.tk:6969","udp://tracker.leechers-paradise.org:6969","udp://zer0day.ch:1337"],"infoHash":"bc31e5ce255e29d9be800c59b414f1d6f5e0aa9e","infoHashBuffer":{"type":"Buffer","data":[188,49,229,206,37,94,41,217,190,128,12,89,180,20,241,214,245,224,170,158]},"name":"Jumanji 2017 CAM Full ENGLISH Audio AAC x264 - EiE","announce":["udp://exodus.desync.com:6969","udp://open.demonii.com:1337","udp://tracker.coppersurfer.tk:6969","udp://tracker.leechers-paradise.org:6969","udp://zer0day.ch:1337"],"urlList":[]}}